<svg width="501" height="189" viewBox="0 0 501 189" fill="none" xmlns="http://www.w3.org/2000/svg">
<path d="M155.898 143.099H124.579V185.901H98.4803V143.099H0.609878V115.956L85.4309 3.20968H124.579V118.305H155.898V143.099ZM98.4803 118.305V21.7398L25.9257 118.305H98.4803ZM251.189 188.511C235.529 188.511 221.784 184.683 209.953 177.028C198.121 169.198 188.987 158.236 182.549 144.143C176.111 129.876 172.892 113.347 172.892 94.5554C172.892 75.7643 176.111 59.322 182.549 45.2287C188.987 30.9614 198.121 19.9999 209.953 12.3443C221.784 4.51462 235.529 0.599802 251.189 0.599802C266.848 0.599802 280.593 4.51462 292.425 12.3443C304.256 19.9999 313.391 30.9614 319.829 45.2287C326.266 59.322 329.485 75.7643 329.485 94.5554C329.485 113.347 326.266 129.876 319.829 144.143C313.391 158.236 304.256 169.198 292.425 177.028C280.593 184.683 266.848 188.511 251.189 188.511ZM251.189 164.239C267.37 164.239 280.071 158.062 289.293 145.709C298.688 133.356 303.386 116.304 303.386 94.5554C303.386 72.8064 298.688 55.7552 289.293 43.4018C280.071 31.0484 267.37 24.8717 251.189 24.8717C235.007 24.8717 222.219 31.0484 212.824 43.4018C203.602 55.7552 198.991 72.8064 198.991 94.5554C198.991 116.304 203.602 133.356 212.824 145.709C222.219 158.062 235.007 164.239 251.189 164.239ZM500.483 143.099H469.164V185.901H443.066V143.099H345.195V115.956L430.016 3.20968H469.164V118.305H500.483V143.099ZM443.066 118.305V21.7398L370.511 118.305H443.066Z" fill="white"/>
</svg>
