<svg width="179" height="66" viewBox="0 0 179 66" fill="none" xmlns="http://www.w3.org/2000/svg">
<g clip-path="url(#clip0_391_1207)">
<path d="M9 0V13.1765H5V0H0V32H5V17.8824H9V32H14V0H9Z" fill="#222222"/>
<path d="M22.9995 33H21.9996C17.872 33 16 31.3119 16 27.3429V20.7429H20.9996V26.4C20.9996 27.8742 21.8031 28.2857 22.9995 28.2857C24.2557 28.2857 23.9994 27.4417 23.9994 25.4571V24.5143C23.9994 22.1895 23.854 22.1247 21.9996 19.8L18.9998 15.0857C16.7865 12.3641 16 10.7748 16 7.54286V6.6C16 2.23402 18.9318 0 22.9995 0H23.9994C28.2466 0 29.999 1.80147 29.999 5.65714V11.3143H24.9993V6.6C24.9993 5.52268 24.2557 4.71429 22.9995 4.71429C21.7433 4.71429 21.9996 5.06907 21.9996 6.6V7.54286C21.9996 9.35729 22.2646 10.1592 23.9994 12.2571L26.9992 16.0286C29.3321 18.9203 29.999 20.8854 29.999 24.5143V25.4571C30.0588 30.2767 27.5458 33 22.9995 33Z" fill="#222222"/>
<path d="M43 0V4.70588H36V13.1765H41V17.8824H36V27.2941H43V32H31V0H43Z" fill="#222222"/>
<path d="M58 26.3529H54V32H49L53 0H60L64 32H59L58 26.3529ZM58 21.6471L56 9.41176L55 21.6471H58V21.6471Z" fill="#222222"/>
<path d="M69 32H64V0H72C75.4553 0 78 1.17523 78 4.70588V10.3529C78 13.043 75.9532 14.6665 75 15.0588C76.1319 15.5072 78 15.7528 78 17.8824V29.1765C78 30.4654 77.8213 31.5517 78 32V32H73C72.7617 31.6637 72 30.9138 72 29.1765V19.7647C72 18.3637 71.6085 17.8824 70 17.8824H69V32ZM69 13.1765H71C72.4298 13.1765 72 12.7512 72 11.2941V6.58824C72 5.18718 72.5489 4.70588 71 4.70588H69V13.1765Z" fill="#222222"/>
<path d="M89 4.70588V32H83V4.70588H79V0H93V4.70588H89Z" fill="#222222"/>
<path d="M107 26.3529H103V32H98L102 0H108L113 32H108L107 26.3529ZM107 21.6471L105 9.41176L104 21.6471H107Z" fill="#222222"/>
<path d="M119 0L123 16.9412V0H128V32H124L119 13.1765V32H114V0H119Z" fill="#222222"/>
<path d="M130 0H138C142.504 0 144 2.77738 144 6.58824V25.4118C144 29.3347 142.322 32 138 32H130V0ZM135 27.2941H137C138.583 27.2941 139 26.1518 139 24.4706V6.58824C139 4.73885 138.339 4.70588 137 4.70588H135V27.2941Z" fill="#222222"/>
<path d="M0 33H8C12.5043 33 14 35.7774 14 39.5882V58.4118C14 62.3347 12.3217 65 8 65H0V33ZM5 60.2941H7C8.58261 60.2941 9 59.1518 9 57.4706V39.5882C9 37.7388 8.33913 37.7059 7 37.7059H5V60.2941Z" fill="#222222"/>
<path d="M28 33V37.7059H21V46.1765H26V50.8824H21V60.2941H28V65H16V33H28Z" fill="#222222"/>
<path d="M35.998 66H34.9983C30.8549 66 29 63.3759 29 59.4V53.7429H33.9986V59.4C33.9986 60.8768 34.797 61.2857 35.998 61.2857C37.259 61.2857 37.9974 60.4451 37.9974 58.4571V57.5143C37.9974 55.1855 36.8598 55.1287 34.9983 52.8L31.9991 48.0857C29.7774 45.3594 29 43.7804 29 40.5429V39.6C29 35.2833 31.8547 33 35.998 33H36.9977C41.2611 33 42.9959 34.7948 42.9959 38.6571V44.3143H37.9974V39.6C37.9974 38.5208 37.259 37.7143 35.998 37.7143C34.737 37.7143 34.9983 38.0664 34.9983 39.6V40.5429C34.9983 42.3604 35.2563 43.1556 36.9977 45.2571L39.9968 49.0286C42.3387 51.9253 42.9959 53.8792 42.9959 57.5143V58.4571C43.116 63.285 40.5616 66 35.998 66Z" fill="#222222"/>
<path d="M50 33H45V65H50V33Z" fill="#222222"/>
<path d="M57 66C53.9091 66 52 63.6711 52 60.3429V39.6C52 35.9897 53.0303 33 58 33H60C65.6364 33 66 36.7634 66 40.5429V43.3714H61V39.6C61 38.1897 60.3333 37.7143 59 37.7143C57.9091 37.7143 57 38.1897 57 39.6V58.4571C57 59.9802 57.9697 61.2857 59 61.2857C60.3333 61.2857 61 60.641 61 59.4V50.9143H59V46.2H66V66H63C62.9394 65.8308 62.4242 63.6388 62 62.2286C61.6364 63.3004 59.6667 66 57 66V66V66Z" fill="#222222"/>
<path d="M73 33L77 49.9412V33H82V65H78L73 46.1765V65H68V33H73Z" fill="#222222"/>
<path d="M94.998 66H93.9983C89.8549 66 88 63.3759 88 59.4V53.7429H92.9986V59.4C92.9986 60.8768 93.797 61.2857 94.998 61.2857C96.259 61.2857 96.9974 60.4451 96.9974 58.4571V57.5143C96.9974 55.1855 95.8598 55.1287 93.9983 52.8L90.9991 48.0857C88.7774 45.3594 88 43.7804 88 40.5429V39.6C88 35.2833 90.8547 33 94.998 33H95.9977C100.261 33 101.996 34.7948 101.996 38.6571V44.3143H96.9974V39.6C96.9974 38.5208 96.259 37.7143 94.998 37.7143C93.737 37.7143 93.9983 38.0664 93.9983 39.6V40.5429C93.9983 42.3604 94.2563 43.1556 95.9977 45.2571L98.9968 49.0286C101.339 51.9253 101.996 53.8792 101.996 57.5143V58.4571C102.116 63.285 99.5616 66 94.998 66Z" fill="#222222"/>
<path d="M113 59.4V51.8571H118V59.4C118 62.8588 117.113 66 112 66H111C105.704 66 104 62.632 104 59.4V39.6C104 36.3113 105.191 33 110 33H112C117.783 33 118 36.4247 118 39.6V45.2571H113V39.6C113 38.1825 112.278 37.7143 111 37.7143C109.722 37.7143 109 38.1258 109 39.6V59.4C109 60.8175 109.783 61.2857 111 61.2857C112.217 61.229 113 60.7041 113 59.4Z" fill="#222222"/>
<path d="M128 50.8824H124V65H119V33H124V46.1765H128V33H133V65H128V50.8824Z" fill="#222222"/>
<path d="M149 58.4571C149 62.9854 147.903 66 143 66H142C137.097 66 135 62.9854 135 58.4571V40.5429C135 36.0712 137.215 33 142 33V33C146.962 33 149 36.1278 149 40.5429V58.4571ZM144 40.5429C144 38.8447 143.181 37.7143 142 37.7143C140.7 37.7143 140 38.9013 140 40.5429V58.4571C140 59.8722 140.582 61.2857 142 61.2857C143.359 61.2857 144 59.8722 144 58.4571V40.5429V40.5429Z" fill="#222222"/>
<path d="M165 58.4571C165 62.9854 163.903 66 159 66H158C153.097 66 151 62.9854 151 58.4571V40.5429C151 36.0712 153.215 33 158 33V33C162.962 33 165 36.1278 165 40.5429V58.4571V58.4571ZM160 40.5429C160 38.8447 159.181 37.7143 158 37.7143C156.7 37.7143 156 38.9013 156 40.5429V58.4571C156 59.8722 156.582 61.2857 158 61.2857C159.359 61.2857 160 59.8722 160 58.4571V40.5429V40.5429Z" fill="#222222"/>
<path d="M172 33V60.2941H179V65H167V33H172Z" fill="#222222"/>
</g>
<defs>
<clipPath id="clip0_391_1207">
<rect width="179" height="66" fill="white"/>
</clipPath>
</defs>
</svg>
