<svg width="45" height="41" viewBox="0 0 45 41" fill="none" xmlns="http://www.w3.org/2000/svg">
<path fill-rule="evenodd" clip-rule="evenodd" d="M3.01191 17.3889C14.8206 11.7618 23.0644 8.20293 27.0119 6.38892C38.2471 1.24303 40.4936 0.425937 42.0119 0.388916C42.3493 0.388916 42.5058 0.944667 43.0119 1.38892C43.4168 1.75912 43.9444 2.01871 44.0119 2.38892C44.0794 2.75912 44.0794 2.79658 44.0119 3.38892C43.4046 10.4229 40.3615 27.5405 39.0119 35.3889C38.4383 38.7208 38.0916 40.2779 37.0119 40.3889C34.6502 40.611 32.2724 39.0178 30.0119 37.3889C26.4355 34.8345 24.487 32.9063 21.0119 30.3889C16.9969 27.5013 19.7176 25.9804 22.0119 23.3889C22.6192 22.7225 32.8095 12.3144 33.0119 11.3889C33.0456 11.2779 33.2481 10.611 33.0119 10.3889C32.7757 10.1668 32.2818 10.3149 32.0119 10.3889C31.6408 10.463 26.0446 15.2073 15.0119 23.3889C13.3924 24.6106 12.3277 24.4259 11.0119 24.3889C9.56112 24.3519 6.10374 24.1293 4.01191 23.3889C1.48146 22.5004 -0.156789 21.9438 0.0119068 20.3889C0.113124 19.5745 1.12251 18.2404 3.01191 17.3889Z" fill="#222222"/>
</svg>
