<svg width="144" height="23" viewBox="0 0 144 23" fill="none" xmlns="http://www.w3.org/2000/svg">
<path d="M0.05 14.5C0.05 13.06 0.4 11.75 1.1 10.57C1.8 9.37 2.76 8.43 3.98 7.75C5.2 7.05 6.55 6.7 8.03 6.7C9.69 6.7 11.18 7.19 12.5 8.17C13.84 9.13 14.72 10.39 15.14 11.95H12.02C11.68 11.15 11.13 10.52 10.37 10.06C9.63 9.58 8.8 9.34 7.88 9.34C6.94 9.34 6.1 9.57 5.36 10.03C4.62 10.47 4.04 11.09 3.62 11.89C3.2 12.67 2.99 13.54 2.99 14.5C2.99 15.46 3.2 16.34 3.62 17.14C4.04 17.92 4.62 18.54 5.36 19C6.1 19.44 6.94 19.66 7.88 19.66C8.8 19.66 9.63 19.43 10.37 18.97C11.13 18.49 11.68 17.85 12.02 17.05H15.14C14.72 18.61 13.84 19.88 12.5 20.86C11.18 21.82 9.69 22.3 8.03 22.3C6.55 22.3 5.2 21.96 3.98 21.28C2.76 20.58 1.8 19.64 1.1 18.46C0.4 17.26 0.05 15.94 0.05 14.5ZM24.9343 22.3C23.4543 22.3 22.1043 21.96 20.8843 21.28C19.6643 20.58 18.7043 19.64 18.0043 18.46C17.3043 17.26 16.9543 15.94 16.9543 14.5C16.9543 13.06 17.3043 11.75 18.0043 10.57C18.7043 9.37 19.6643 8.43 20.8843 7.75C22.1043 7.05 23.4543 6.7 24.9343 6.7C26.3943 6.7 27.7243 7.05 28.9243 7.75C30.1443 8.43 31.1043 9.37 31.8043 10.57C32.5043 11.75 32.8543 13.06 32.8543 14.5C32.8543 15.94 32.5043 17.26 31.8043 18.46C31.1043 19.64 30.1443 20.58 28.9243 21.28C27.7243 21.96 26.3943 22.3 24.9343 22.3ZM24.9343 19.66C25.8543 19.66 26.6943 19.44 27.4543 19C28.2143 18.54 28.8143 17.92 29.2543 17.14C29.6943 16.34 29.9143 15.46 29.9143 14.5C29.9143 13.54 29.6943 12.67 29.2543 11.89C28.8143 11.09 28.2143 10.47 27.4543 10.03C26.6943 9.57 25.8543 9.34 24.9343 9.34C23.9943 9.34 23.1343 9.57 22.3543 10.03C21.5943 10.47 20.9943 11.09 20.5543 11.89C20.1143 12.67 19.8943 13.54 19.8943 14.5C19.8943 15.46 20.1143 16.34 20.5543 17.14C20.9943 17.92 21.5943 18.54 22.3543 19C23.1343 19.44 23.9943 19.66 24.9343 19.66ZM39.1426 0.849999V22H36.2926V0.849999H39.1426ZM50.5691 22.3C49.0891 22.3 47.7391 21.96 46.5191 21.28C45.2991 20.58 44.3391 19.64 43.6391 18.46C42.9391 17.26 42.5891 15.94 42.5891 14.5C42.5891 13.06 42.9391 11.75 43.6391 10.57C44.3391 9.37 45.2991 8.43 46.5191 7.75C47.7391 7.05 49.0891 6.7 50.5691 6.7C52.0291 6.7 53.3591 7.05 54.5591 7.75C55.7791 8.43 56.7391 9.37 57.4391 10.57C58.1391 11.75 58.4891 13.06 58.4891 14.5C58.4891 15.94 58.1391 17.26 57.4391 18.46C56.7391 19.64 55.7791 20.58 54.5591 21.28C53.3591 21.96 52.0291 22.3 50.5691 22.3ZM50.5691 19.66C51.4891 19.66 52.3291 19.44 53.0891 19C53.8491 18.54 54.4491 17.92 54.8891 17.14C55.3291 16.34 55.5491 15.46 55.5491 14.5C55.5491 13.54 55.3291 12.67 54.8891 11.89C54.4491 11.09 53.8491 10.47 53.0891 10.03C52.3291 9.57 51.4891 9.34 50.5691 9.34C49.6291 9.34 48.7691 9.57 47.9891 10.03C47.2291 10.47 46.6291 11.09 46.1891 11.89C45.7491 12.67 45.5291 13.54 45.5291 14.5C45.5291 15.46 45.7491 16.34 46.1891 17.14C46.6291 17.92 47.2291 18.54 47.9891 19C48.7691 19.44 49.6291 19.66 50.5691 19.66ZM69.5773 6.7C70.0573 6.7 70.5073 6.73 70.9273 6.79V9.58C70.5673 9.5 69.9973 9.46 69.2173 9.46C68.3373 9.46 67.5573 9.66 66.8773 10.06C66.2173 10.46 65.6973 11 65.3173 11.68C64.9573 12.34 64.7773 13.07 64.7773 13.87V22H61.9273V7H64.6273V9.31C65.1873 8.51 65.8973 7.88 66.7573 7.42C67.6373 6.94 68.5773 6.7 69.5773 6.7ZM92.3891 6.7C93.5891 6.7 94.6591 6.96 95.5991 7.48C96.5591 8 97.3091 8.79 97.8491 9.85C98.4091 10.89 98.6891 12.17 98.6891 13.69V22H95.8391V13.75C95.8391 12.43 95.4591 11.38 94.6991 10.6C93.9591 9.82 93.0191 9.43 91.8791 9.43C90.6391 9.43 89.6391 9.87 88.8791 10.75C88.1191 11.63 87.7391 12.71 87.7391 13.99V22H84.8891V13.75C84.8891 12.43 84.5091 11.38 83.7491 10.6C83.0091 9.82 82.0691 9.43 80.9291 9.43C79.6891 9.43 78.6891 9.87 77.9291 10.75C77.1691 11.63 76.7891 12.71 76.7891 13.99V22H73.9391V7H76.6391V9.37C77.1791 8.55 77.8691 7.9 78.7091 7.42C79.5691 6.94 80.4791 6.7 81.4391 6.7C82.6191 6.7 83.6791 6.96 84.6191 7.48C85.5791 7.98 86.3191 8.73 86.8391 9.73C87.4191 8.81 88.1991 8.08 89.1791 7.54C90.1791 6.98 91.2491 6.7 92.3891 6.7ZM106.027 7V22H103.177V7H106.027ZM106.207 0.999999V4.3H103.027V0.999999H106.207ZM118.474 6.7C119.694 6.7 120.784 6.96 121.744 7.48C122.724 8 123.494 8.79 124.054 9.85C124.634 10.89 124.924 12.17 124.924 13.69V22H122.074V13.75C122.074 12.43 121.684 11.38 120.904 10.6C120.124 9.82 119.144 9.43 117.964 9.43C117.104 9.43 116.344 9.64 115.684 10.06C115.044 10.46 114.544 11.01 114.184 11.71C113.844 12.41 113.674 13.17 113.674 13.99V22H110.824V7H113.524V9.4C114.084 8.58 114.794 7.93 115.654 7.45C116.534 6.95 117.474 6.7 118.474 6.7ZM143.077 0.849999V22H140.227V19.75C139.607 20.55 138.857 21.18 137.977 21.64C137.097 22.08 136.157 22.3 135.157 22.3C133.837 22.3 132.637 21.97 131.557 21.31C130.477 20.63 129.627 19.7 129.007 18.52C128.387 17.34 128.077 16 128.077 14.5C128.077 13 128.387 11.66 129.007 10.48C129.627 9.3 130.477 8.38 131.557 7.72C132.637 7.04 133.837 6.7 135.157 6.7C136.197 6.7 137.167 6.94 138.067 7.42C138.967 7.9 139.737 8.57 140.377 9.43V0.849999H143.077ZM135.637 19.66C136.517 19.66 137.317 19.44 138.037 19C138.757 18.56 139.317 17.95 139.717 17.17C140.117 16.37 140.317 15.48 140.317 14.5C140.317 13.52 140.117 12.64 139.717 11.86C139.317 11.06 138.757 10.44 138.037 10C137.317 9.56 136.517 9.34 135.637 9.34C134.757 9.34 133.967 9.56 133.267 10C132.567 10.44 132.017 11.06 131.617 11.86C131.217 12.64 131.017 13.52 131.017 14.5C131.017 15.48 131.217 16.37 131.617 17.17C132.017 17.95 132.567 18.56 133.267 19C133.967 19.44 134.757 19.66 135.637 19.66Z" fill="#222222"/>
</svg>
