<svg width="1145" height="173" viewBox="0 0 1145 173" fill="none" xmlns="http://www.w3.org/2000/svg">
<path d="M0.4 110C0.4 98.48 3.2 88 8.8 78.56C14.4 68.96 22.08 61.44 31.84 56C41.6 50.4 52.4 47.6 64.24 47.6C77.52 47.6 89.44 51.52 100 59.36C110.72 67.04 117.76 77.12 121.12 89.6H96.16C93.44 83.2 89.04 78.16 82.96 74.48C77.04 70.64 70.4 68.72 63.04 68.72C55.52 68.72 48.8 70.56 42.88 74.24C36.96 77.76 32.32 82.72 28.96 89.12C25.6 95.36 23.92 102.32 23.92 110C23.92 117.68 25.6 124.72 28.96 131.12C32.32 137.36 36.96 142.32 42.88 146C48.8 149.52 55.52 151.28 63.04 151.28C70.4 151.28 77.04 149.44 82.96 145.76C89.04 141.92 93.44 136.8 96.16 130.4H121.12C117.76 142.88 110.72 153.04 100 160.88C89.44 168.56 77.52 172.4 64.24 172.4C52.4 172.4 41.6 169.68 31.84 164.24C22.08 158.64 14.4 151.12 8.8 141.68C3.2 132.08 0.4 121.52 0.4 110ZM199.474 172.4C187.634 172.4 176.834 169.68 167.074 164.24C157.314 158.64 149.634 151.12 144.034 141.68C138.434 132.08 135.634 121.52 135.634 110C135.634 98.48 138.434 88 144.034 78.56C149.634 68.96 157.314 61.44 167.074 56C176.834 50.4 187.634 47.6 199.474 47.6C211.154 47.6 221.794 50.4 231.394 56C241.154 61.44 248.834 68.96 254.434 78.56C260.034 88 262.834 98.48 262.834 110C262.834 121.52 260.034 132.08 254.434 141.68C248.834 151.12 241.154 158.64 231.394 164.24C221.794 169.68 211.154 172.4 199.474 172.4ZM199.474 151.28C206.834 151.28 213.554 149.52 219.634 146C225.714 142.32 230.514 137.36 234.034 131.12C237.554 124.72 239.314 117.68 239.314 110C239.314 102.32 237.554 95.36 234.034 89.12C230.514 82.72 225.714 77.76 219.634 74.24C213.554 70.56 206.834 68.72 199.474 68.72C191.954 68.72 185.074 70.56 178.834 74.24C172.754 77.76 167.954 82.72 164.434 89.12C160.914 95.36 159.154 102.32 159.154 110C159.154 117.68 160.914 124.72 164.434 131.12C167.954 137.36 172.754 142.32 178.834 146C185.074 149.52 191.954 151.28 199.474 151.28ZM313.141 0.79999V170H290.341V0.79999H313.141ZM404.553 172.4C392.713 172.4 381.913 169.68 372.153 164.24C362.393 158.64 354.713 151.12 349.113 141.68C343.513 132.08 340.713 121.52 340.713 110C340.713 98.48 343.513 88 349.113 78.56C354.713 68.96 362.393 61.44 372.153 56C381.913 50.4 392.713 47.6 404.553 47.6C416.233 47.6 426.873 50.4 436.473 56C446.233 61.44 453.913 68.96 459.513 78.56C465.113 88 467.912 98.48 467.912 110C467.912 121.52 465.113 132.08 459.513 141.68C453.913 151.12 446.233 158.64 436.473 164.24C426.873 169.68 416.233 172.4 404.553 172.4ZM404.553 151.28C411.913 151.28 418.633 149.52 424.713 146C430.793 142.32 435.593 137.36 439.113 131.12C442.633 124.72 444.393 117.68 444.393 110C444.393 102.32 442.633 95.36 439.113 89.12C435.593 82.72 430.793 77.76 424.713 74.24C418.633 70.56 411.913 68.72 404.553 68.72C397.033 68.72 390.153 70.56 383.913 74.24C377.833 77.76 373.033 82.72 369.513 89.12C365.993 95.36 364.233 102.32 364.233 110C364.233 117.68 365.993 124.72 369.513 131.12C373.033 137.36 377.833 142.32 383.913 146C390.153 149.52 397.033 151.28 404.553 151.28ZM556.619 47.6C560.459 47.6 564.059 47.84 567.419 48.32V70.64C564.539 70 559.979 69.68 553.739 69.68C546.699 69.68 540.459 71.28 535.019 74.48C529.739 77.68 525.579 82 522.539 87.44C519.659 92.72 518.219 98.56 518.219 104.96V170H495.419V50H517.019V68.48C521.499 62.08 527.179 57.04 534.059 53.36C541.099 49.52 548.619 47.6 556.619 47.6ZM739.113 47.6C748.713 47.6 757.273 49.68 764.793 53.84C772.473 58 778.473 64.32 782.793 72.8C787.273 81.12 789.513 91.36 789.513 103.52V170H766.713V104C766.713 93.44 763.673 85.04 757.593 78.8C751.673 72.56 744.153 69.44 735.033 69.44C725.113 69.44 717.113 72.96 711.033 80C704.953 87.04 701.913 95.68 701.913 105.92V170H679.113V104C679.113 93.44 676.073 85.04 669.993 78.8C664.073 72.56 656.553 69.44 647.433 69.44C637.513 69.44 629.513 72.96 623.433 80C617.353 87.04 614.313 95.68 614.313 105.92V170H591.513V50H613.113V68.96C617.433 62.4 622.953 57.2 629.673 53.36C636.553 49.52 643.833 47.6 651.513 47.6C660.953 47.6 669.433 49.68 676.953 53.84C684.633 57.84 690.553 63.84 694.713 71.84C699.353 64.48 705.593 58.64 713.432 54.32C721.433 49.84 729.993 47.6 739.113 47.6ZM848.219 50V170H825.419V50H848.219ZM849.659 1.99999V28.4H824.219V1.99999H849.659ZM947.791 47.6C957.551 47.6 966.271 49.68 973.951 53.84C981.791 58 987.951 64.32 992.431 72.8C997.071 81.12 999.391 91.36 999.391 103.52V170H976.591V104C976.591 93.44 973.471 85.04 967.231 78.8C960.991 72.56 953.151 69.44 943.711 69.44C936.831 69.44 930.751 71.12 925.471 74.48C920.351 77.68 916.351 82.08 913.471 87.68C910.751 93.28 909.391 99.36 909.391 105.92V170H886.591V50H908.191V69.2C912.671 62.64 918.351 57.44 925.231 53.6C932.271 49.6 939.791 47.6 947.791 47.6ZM1144.62 0.79999V170H1121.82V152C1116.86 158.4 1110.86 163.44 1103.82 167.12C1096.78 170.64 1089.26 172.4 1081.26 172.4C1070.7 172.4 1061.1 169.76 1052.46 164.48C1043.82 159.04 1037.02 151.6 1032.06 142.16C1027.1 132.72 1024.62 122 1024.62 110C1024.62 98 1027.1 87.28 1032.06 77.84C1037.02 68.4 1043.82 61.04 1052.46 55.76C1061.1 50.32 1070.7 47.6 1081.26 47.6C1089.58 47.6 1097.34 49.52 1104.54 53.36C1111.74 57.2 1117.9 62.56 1123.02 69.44V0.79999H1144.62ZM1085.1 151.28C1092.14 151.28 1098.54 149.52 1104.3 146C1110.06 142.48 1114.54 137.6 1117.74 131.36C1120.94 124.96 1122.54 117.84 1122.54 110C1122.54 102.16 1120.94 95.12 1117.74 88.88C1114.54 82.48 1110.06 77.52 1104.3 74C1098.54 70.48 1092.14 68.72 1085.1 68.72C1078.06 68.72 1071.74 70.48 1066.14 74C1060.54 77.52 1056.14 82.48 1052.94 88.88C1049.74 95.12 1048.14 102.16 1048.14 110C1048.14 117.84 1049.74 124.96 1052.94 131.36C1056.14 137.6 1060.54 142.48 1066.14 146C1071.74 149.52 1078.06 151.28 1085.1 151.28Z" fill="white"/>
</svg>
