<svg width="1431" height="215" viewBox="0 0 1431 215" fill="none" xmlns="http://www.w3.org/2000/svg">
<path d="M0.5 137C0.5 122.6 4 109.5 11 97.7C18 85.7 27.6 76.3 39.8 69.5C52 62.5 65.5 59 80.3 59C96.9 59 111.8 63.9 125 73.7C138.4 83.3 147.2 95.9 151.4 111.5H120.2C116.8 103.5 111.3 97.2 103.7 92.6C96.3 87.8 88 85.4 78.8 85.4C69.4 85.4 61 87.7 53.6 92.3C46.2 96.7 40.4 102.9 36.2 110.9C32 118.7 29.9 127.4 29.9 137C29.9 146.6 32 155.4 36.2 163.4C40.4 171.2 46.2 177.4 53.6 182C61 186.4 69.4 188.6 78.8 188.6C88 188.6 96.3 186.3 103.7 181.7C111.3 176.9 116.8 170.5 120.2 162.5H151.4C147.2 178.1 138.4 190.8 125 200.6C111.8 210.2 96.9 215 80.3 215C65.5 215 52 211.6 39.8 204.8C27.6 197.8 18 188.4 11 176.6C4 164.6 0.5 151.4 0.5 137ZM249.343 215C234.543 215 221.043 211.6 208.843 204.8C196.643 197.8 187.043 188.4 180.043 176.6C173.043 164.6 169.543 151.4 169.543 137C169.543 122.6 173.043 109.5 180.043 97.7C187.043 85.7 196.643 76.3 208.843 69.5C221.043 62.5 234.543 59 249.343 59C263.943 59 277.243 62.5 289.243 69.5C301.443 76.3 311.043 85.7 318.043 97.7C325.043 109.5 328.543 122.6 328.543 137C328.543 151.4 325.043 164.6 318.043 176.6C311.043 188.4 301.443 197.8 289.243 204.8C277.243 211.6 263.943 215 249.343 215ZM249.343 188.6C258.543 188.6 266.943 186.4 274.543 182C282.143 177.4 288.143 171.2 292.543 163.4C296.943 155.4 299.143 146.6 299.143 137C299.143 127.4 296.943 118.7 292.543 110.9C288.143 102.9 282.143 96.7 274.543 92.3C266.943 87.7 258.543 85.4 249.343 85.4C239.943 85.4 231.343 87.7 223.543 92.3C215.943 96.7 209.943 102.9 205.543 110.9C201.143 118.7 198.943 127.4 198.943 137C198.943 146.6 201.143 155.4 205.543 163.4C209.943 171.2 215.943 177.4 223.543 182C231.343 186.4 239.943 188.6 249.343 188.6ZM391.426 0.499987V212H362.926V0.499987H391.426ZM505.691 215C490.891 215 477.391 211.6 465.191 204.8C452.991 197.8 443.391 188.4 436.391 176.6C429.391 164.6 425.891 151.4 425.891 137C425.891 122.6 429.391 109.5 436.391 97.7C443.391 85.7 452.991 76.3 465.191 69.5C477.391 62.5 490.891 59 505.691 59C520.291 59 533.591 62.5 545.591 69.5C557.791 76.3 567.391 85.7 574.391 97.7C581.391 109.5 584.891 122.6 584.891 137C584.891 151.4 581.391 164.6 574.391 176.6C567.391 188.4 557.791 197.8 545.591 204.8C533.591 211.6 520.291 215 505.691 215ZM505.691 188.6C514.891 188.6 523.291 186.4 530.891 182C538.491 177.4 544.491 171.2 548.891 163.4C553.291 155.4 555.491 146.6 555.491 137C555.491 127.4 553.291 118.7 548.891 110.9C544.491 102.9 538.491 96.7 530.891 92.3C523.291 87.7 514.891 85.4 505.691 85.4C496.291 85.4 487.691 87.7 479.891 92.3C472.291 96.7 466.291 102.9 461.891 110.9C457.491 118.7 455.291 127.4 455.291 137C455.291 146.6 457.491 155.4 461.891 163.4C466.291 171.2 472.291 177.4 479.891 182C487.691 186.4 496.291 188.6 505.691 188.6ZM695.773 59C700.573 59 705.073 59.3 709.273 59.9V87.8C705.673 87 699.973 86.6 692.173 86.6C683.373 86.6 675.573 88.6 668.773 92.6C662.173 96.6 656.973 102 653.173 108.8C649.573 115.4 647.773 122.7 647.773 130.7V212H619.273V62H646.273V85.1C651.873 77.1 658.973 70.8 667.573 66.2C676.373 61.4 685.773 59 695.773 59ZM923.891 59C935.891 59 946.591 61.6 955.991 66.8C965.591 72 973.091 79.9 978.491 90.5C984.091 100.9 986.891 113.7 986.891 128.9V212H958.391V129.5C958.391 116.3 954.591 105.8 946.991 98C939.591 90.2 930.191 86.3 918.791 86.3C906.391 86.3 896.391 90.7 888.791 99.5C881.191 108.3 877.391 119.1 877.391 131.9V212H848.891V129.5C848.891 116.3 845.091 105.8 837.491 98C830.091 90.2 820.691 86.3 809.291 86.3C796.891 86.3 786.891 90.7 779.291 99.5C771.691 108.3 767.891 119.1 767.891 131.9V212H739.391V62H766.391V85.7C771.791 77.5 778.691 71 787.091 66.2C795.691 61.4 804.791 59 814.391 59C826.191 59 836.791 61.6 846.191 66.8C855.791 71.8 863.191 79.3 868.391 89.3C874.191 80.1 881.991 72.8 891.791 67.4C901.791 61.8 912.491 59 923.891 59ZM1060.27 62V212H1031.77V62H1060.27ZM1062.07 1.99999V35H1030.27V1.99999H1062.07ZM1184.74 59C1196.94 59 1207.84 61.6 1217.44 66.8C1227.24 72 1234.94 79.9 1240.54 90.5C1246.34 100.9 1249.24 113.7 1249.24 128.9V212H1220.74V129.5C1220.74 116.3 1216.84 105.8 1209.04 98C1201.24 90.2 1191.44 86.3 1179.64 86.3C1171.04 86.3 1163.44 88.4 1156.84 92.6C1150.44 96.6 1145.44 102.1 1141.84 109.1C1138.44 116.1 1136.74 123.7 1136.74 131.9V212H1108.24V62H1135.24V86C1140.84 77.8 1147.94 71.3 1156.54 66.5C1165.34 61.5 1174.74 59 1184.74 59ZM1430.77 0.499987V212H1402.27V189.5C1396.07 197.5 1388.57 203.8 1379.77 208.4C1370.97 212.8 1361.57 215 1351.57 215C1338.37 215 1326.37 211.7 1315.57 205.1C1304.77 198.3 1296.27 189 1290.07 177.2C1283.87 165.4 1280.77 152 1280.77 137C1280.77 122 1283.87 108.6 1290.07 96.8C1296.27 85 1304.77 75.8 1315.57 69.2C1326.37 62.4 1338.37 59 1351.57 59C1361.97 59 1371.67 61.4 1380.67 66.2C1389.67 71 1397.37 77.7 1403.77 86.3V0.499987H1430.77ZM1356.37 188.6C1365.17 188.6 1373.17 186.4 1380.37 182C1387.57 177.6 1393.17 171.5 1397.17 163.7C1401.17 155.7 1403.17 146.8 1403.17 137C1403.17 127.2 1401.17 118.4 1397.17 110.6C1393.17 102.6 1387.57 96.4 1380.37 92C1373.17 87.6 1365.17 85.4 1356.37 85.4C1347.57 85.4 1339.67 87.6 1332.67 92C1325.67 96.4 1320.17 102.6 1316.17 110.6C1312.17 118.4 1310.17 127.2 1310.17 137C1310.17 146.8 1312.17 155.7 1316.17 163.7C1320.17 171.5 1325.67 177.6 1332.67 182C1339.67 186.4 1347.57 188.6 1356.37 188.6Z" fill="white"/>
</svg>
